<?xml version="1.0" encoding="UTF-8"?>
<!DOCTYPE svg PUBLIC "-//W3C//DTD SVG 1.1//EN" "http://www.w3.org/Graphics/SVG/1.1/DTD/svg11.dtd">
<!-- Creator: CorelDRAW -->
<svg xmlns="http://www.w3.org/2000/svg" xml:space="preserve" width="2.29494in" height="2.29484in" version="1.1" style="shape-rendering:geometricPrecision; text-rendering:geometricPrecision; image-rendering:optimizeQuality; fill-rule:evenodd; clip-rule:evenodd"
viewBox="0 0 1856.52 1856.44"
 xmlns:xlink="http://www.w3.org/1999/xlink"
 xmlns:xodm="http://www.corel.com/coreldraw/odm/2003">
 <defs>
  <style type="text/css">
   <![CDATA[
    .fil0 {fill:black;fill-rule:nonzero}
   ]]>
  </style>
 </defs>
 <g id="Layer_x0020_1">
  <metadata id="CorelCorpID_0Corel-Layer"/>
  <path class="fil0" d="M928.26 0c-511.32,0 -928.26,416.94 -928.26,928.18 0,511.24 416.94,928.26 928.26,928.26 511.32,0 928.26,-416.94 928.26,-928.26 0,-511.32 -414.78,-928.18 -928.26,-928.18zm0 116.28c449.86,0 814.13,364.27 814.13,811.98 0,447.71 -364.27,811.98 -814.13,811.98 -449.87,0 -811.98,-362.2 -811.98,-812.06 0,-447.63 362.12,-811.9 811.98,-811.9zm351.08 333.59c-138.26,0 -250.15,111.89 -250.15,250.14 0,138.26 111.89,250.15 250.15,250.15 138.26,0 250.14,-114.13 250.14,-250.15 0,-136.02 -114.12,-250.14 -250.14,-250.14zm-700.01 4.31c-138.26,0 -250.15,114.12 -250.15,250.14 0,136.02 111.89,250.15 250.15,250.15 138.26,0 250.14,-111.89 250.14,-250.15 0,-138.26 -114.12,-250.14 -250.14,-250.14zm700.01 111.97c74.64,0 133.86,59.22 133.86,133.86 0,74.65 -59.22,133.86 -133.86,133.86 -74.65,0 -133.86,-59.22 -133.86,-133.86 0,-74.64 59.22,-133.86 133.86,-133.86zm-700.01 4.4c74.64,0 133.86,59.22 133.86,133.86 0,74.65 -59.22,133.86 -133.86,133.86 -74.65,0 -133.87,-59.22 -133.87,-133.86 0,-74.64 59.22,-133.86 133.87,-133.86zm348.93 458.66c-188.69,0 -344.53,131.71 -386.25,307.21 -6.55,30.69 13.19,61.46 43.88,70.25 30.69,6.55 61.46,-13.19 70.25,-43.88l0 -0.08c28.53,-125.07 138.26,-217.22 272.13,-217.22 133.86,0 243.59,92.15 272.12,217.22 6.55,30.69 37.32,50.51 70.25,43.88 30.69,-6.55 50.51,-37.32 43.88,-70.25 0,0 0,0 0,0 -39.48,-175.58 -197.48,-307.21 -386.25,-307.21l0 0.08z"/>
 </g>
</svg>
