<?xml version="1.0" encoding="UTF-8"?>
<!DOCTYPE svg PUBLIC "-//W3C//DTD SVG 1.1//EN" "http://www.w3.org/Graphics/SVG/1.1/DTD/svg11.dtd">
<!-- Creator: CorelDRAW -->
<svg xmlns="http://www.w3.org/2000/svg" xml:space="preserve" width="0.833406in" height="0.750492in" version="1.1" style="shape-rendering:geometricPrecision; text-rendering:geometricPrecision; image-rendering:optimizeQuality; fill-rule:evenodd; clip-rule:evenodd"
viewBox="0 0 298.97 269.23"
 xmlns:xlink="http://www.w3.org/1999/xlink"
 xmlns:xodm="http://www.corel.com/coreldraw/odm/2003">
 <defs>
  <style type="text/css">
   <![CDATA[
    .fil0 {fill:currentColor;fill-rule:nonzero}
   ]]>
  </style>
 </defs>
 <g id="Layer_x0020_1">
  <metadata id="CorelCorpID_0Corel-Layer"/>
  <path class="fil0" d="M298.95 134.03c-0.19,-4.2 -2.71,-7.95 -6.54,-9.69l-276.52 -123.31c-1.46,-0.67 -3.06,-1.02 -4.68,-1.02 -6.19,0 -11.21,5.02 -11.21,11.21 0,1.64 0.36,3.27 1.06,4.76l53.95 118.64 -53.95 118.64c-0.69,1.49 -1.06,3.11 -1.06,4.76 0,6.19 5.02,11.21 11.21,11.21 1.62,0 3.21,-0.35 4.68,-1.02l276.52 -123.31c3.99,-1.82 6.56,-5.81 6.56,-10.2 0,-0.22 -0.01,-0.44 -0.02,-0.66l0 0zm-38.77 0.58l-226.43 100.89 43.79 -96.22c0.67,-1.46 1.02,-3.06 1.02,-4.67 0,-1.61 -0.35,-3.21 -1.02,-4.67l-43.79 -96.22 226.43 100.89 -0 -0z" display="inline"/>
 </g>
</svg>
